<?xml version="1.0" standalone="no"?>
<!DOCTYPE svg PUBLIC "-//W3C//DTD SVG 1.1//EN" "http://www.w3.org/Graphics/SVG/1.1/DTD/svg11.dtd" >
<svg xmlns="http://www.w3.org/2000/svg">
<metadata>Generated by IcoMoon</metadata>
<defs>
<font id="icomoon" horiz-adv-x="1024">
<font-face units-per-em="1024" ascent="960" descent="-64" />
<missing-glyph horiz-adv-x="1024" />
<glyph unicode="&#x20;" horiz-adv-x="512" d="" />
<glyph unicode="&#xe600;" glyph-name="password" d="M783.317 565.7h-30.126v120.159c0 144.492-100.075 257.67-242.224 257.67-142.728 0-240.007-115.584-240.007-257.67v-120.159h-30.127c-66.482 0-120.549-56.503-120.549-125.939v-377.829c0-69.451 54.067-125.924 120.549-125.924h542.499c66.466 0 120.535 56.504 120.535 125.924v377.829c0 69.467-54.069 125.939-120.55 125.939zM331.227 685.859c0 107.353 70.292 194.686 179.739 194.686 108.354 0 181.959-85.522 181.959-194.686v-120.159h-361.697v120.159zM783.317-1.022h-542.515c-33.218 0-60.236 28.237-60.236 62.955v377.829c0 34.763 27.048 62.97 60.236 62.97h542.484c33.249 0 60.267-28.207 60.267-62.97v-377.829h0.030c0-34.718-27.048-62.955-60.266-62.955zM512.075 376.792c-33.297 0-60.267-28.173-60.267-63 0-23.285 12.118-43.636 30.141-54.505v-102.887c0-17.366 13.463-31.483 30.127-31.483s30.157 14.117 30.157 31.483v102.887c17.992 10.885 30.11 31.267 30.11 54.505 0 34.812-26.971 63-60.268 63z" />
<glyph unicode="&#xe601;" glyph-name="map" d="M247.892 649.49c3.766-14.432 8.002-30.118 12.706-47.059 4.708-16.941 10.039-34.195 15.999-51.761 5.964-17.568 12.704-34.982 20.234-52.236 7.53-17.25 15.684-33.411 24.472-48.468v-370.809l-235.287-58.348v588.212l161.876 40.468zM318.478 681.488c0 3.135-0.158 6.117-0.471 8.94-0.315 2.822-0.473 5.802-0.473 8.944 0 28.232 5.489 54.583 16.47 79.057 10.981 24.465 25.881 45.957 44.704 64.465 18.825 18.508 40.784 33.096 65.878 43.764 25.102 10.668 52.081 15.999 80.941 15.999s55.841-5.331 80.941-15.997c25.094-10.668 47.053-25.258 65.878-43.764 18.821-18.508 33.72-39.999 44.702-64.465 10.981-24.472 16.47-50.823 16.47-79.057v-11.295c0-3.764-0.313-7.53-0.942-11.295-3.764-33.253-11.133-65.094-22.116-95.525-10.981-30.431-24.938-59.763-41.88-87.994-16.941-28.236-36.391-55.37-58.354-81.408-21.959-26.042-45.488-50.981-70.582-74.822-4.393-4.395-9.099-6.588-14.119-6.588-5.018 0-9.724 2.193-14.119 6.588-25.723 23.843-49.566 48.937-71.524 75.291-21.959 26.352-41.413 53.959-58.35 82.821-16.941 28.865-30.902 58.825-41.884 89.879-10.973 31.056-18.033 63.209-21.17 96.463v0zM525.527 785.953c-12.546 0-24.156-2.193-34.82-6.588-10.668-4.389-19.921-10.51-27.765-18.35-7.844-7.844-14.119-17.097-18.821-27.765-4.708-10.668-7.059-21.959-7.059-33.878 0-11.923 2.351-23.214 7.059-33.882 4.704-10.668 10.977-19.921 18.821-27.765 7.844-7.84 17.099-13.961 27.765-18.35 10.662-4.393 22.272-6.588 34.82-6.588s24.314 2.193 35.291 6.588c10.981 4.389 20.392 10.51 28.236 18.35 7.842 7.844 14.119 17.099 18.821 27.765 4.708 10.668 7.059 21.959 7.059 33.882 0 11.919-2.351 23.21-7.059 33.878-4.704 10.668-10.981 19.921-18.821 27.765-7.844 7.842-17.254 13.961-28.236 18.35-10.975 4.395-22.743 6.588-35.291 6.588v0zM379.652 373.735c18.199-20.079 35.92-38.271 53.174-54.583 17.256-16.312 32.782-30.745 46.588-43.293 16.312-14.432 31.683-27.294 46.115-38.588 7.53 6.273 15.999 13.49 25.41 21.647 8.157 6.902 17.57 15.686 28.236 26.352 10.668 10.668 22.901 22.587 36.704 35.762v-300.222l-236.229 58.35v294.576h0.002zM909.515 668.314v-589.154l-235.287-58.35v360.456c3.764 3.766 7.373 7.684 10.824 11.764s7.059 8.002 10.82 11.766c12.552 13.799 24.156 30.269 34.824 49.41 10.668 19.134 20.236 39.526 28.705 61.172 8.473 21.649 15.997 43.293 22.587 64.942 6.588 21.645 12.394 41.88 17.412 60.701l110.115 27.294z" />
<glyph unicode="&#xe602;" glyph-name="rexian" d="M677 567.2c12.4-15.3 25.6-30.9 39.8-46.8l39.3-46.8c14.4-17.1 29.3-34.6 44.6-52.3 17-20.1 33.1-40.9 48.2-62.4 12.7-18.4 22.7-35.2 30.1-50.5s12.4-29.4 15-42.2c2.7-12.9 4-25.7 4-38.6v-59.7c0-18.3-3-34.9-8.8-49.6-5.6-14.2-13.8-27.2-24.3-38.1-10.3-10.7-22.1-19-35.4-24.8s-27.5-8.8-42-8.7h-545.4c-15.9 0-31.1 2.8-45.5 8.3-14 5.2-26.9 13.2-38 23.4-11 10.2-19.8 22.5-26.1 36.3-6.5 14.1-9.7 30-9.7 47.8v70.5c0 14.7 1.3 28.8 4 42.2 3.1 14.7 8 28.9 14.6 42.2 7.1 14.7 16.8 30.5 29.2 47.3 14.6 19.4 30.2 38 46.9 55.6 15.3 17.1 31.1 34.4 47.3 51.9s30.8 33.2 43.7 47.3l44.2 47.8 324.3-0.1zM510.9 219.2c15.3 0 29.7 3 43.3 9.2 13.2 5.9 25.2 14.3 35.4 24.8 10 10.4 18 22.8 23.8 37.2 5.9 14.4 8.9 29.5 8.9 45.5 0.1 15.5-2.9 30.8-8.9 45-5.6 13.7-13.7 26.1-23.8 36.7-10.1 10.5-22.1 18.9-35.4 24.8-13.6 6.1-28.4 9.3-43.3 9.2-15.1 0-29.9-3.1-43.8-9.2-13.4-5.8-25.6-14.2-35.8-24.8-10.1-10.6-18.2-23.1-23.8-36.7-5.9-14.2-8.9-29.5-8.8-45 0-15.9 2.9-31.1 8.8-45.5s13.8-26.8 23.8-37.2c10-10.4 21.9-18.7 35.8-24.8 13.8-6.1 28.7-9.2 43.8-9.2zM953.7 678.3v-57.8c0-15.9-5.5-29.4-16.3-40.4-10.3-10.8-24.6-16.8-39.3-16.5h-110.5c-15.3 0-28.3 5.5-38.9 16.5-10.5 10.7-16.2 25.3-15.9 40.4v57.8h-442.9v-57.8c0-15.9-5.3-29.4-15.9-40.4-10.1-10.8-24.3-16.8-38.9-16.5h-110.5c-15.3 0-28.4 5.5-39.3 16.5-10.7 10.5-16.6 25.2-16.4 40.4v59.7c0 7.4 1.8 13.6 5.3 18.9 3.5 5.2 7.9 9.9 13.3 14.2 5.5 4.4 11.4 8.2 17.7 11.5 6.5 3.4 13 7.2 19.4 11.5 6.5 3.7 21.1 11.8 43.8 24.3 22.7 12.6 51.3 25.6 85.7 39 34.5 13.5 73.7 25.4 117.6 35.8s90.6 15.6 140.1 15.6c56.6 0 107.1-5.2 151.6-15.6s83.1-22.3 115.8-35.8c32.7-13.5 58.9-26.5 78.7-39 19.8-12.6 33.2-20.7 40.2-24.3 7.1-4.3 13.9-8.1 20.3-11.5 6.5-3.4 12.4-7.2 17.7-11.5s9.6-9 12.8-14.3c3.2-5.2 4.9-11.5 4.9-18.8v-1.9h-0.1z" />
<glyph unicode="&#xe603;" glyph-name="wenda" d="M825.6 819.2c-76.8 83.2-192 128-313.6 128s-230.4-51.2-313.6-128c-147.2-147.2-172.8-384-51.2-563.2 51.2-70.4 115.2-128 198.4-160l140.8-140.8c12.8-12.8 38.4-12.8 57.6 0l140.8 140.8c76.8 32 147.2 89.6 198.4 160 115.2 179.2 89.6 416-57.6 563.2zM512 192c-6.4-6.4-19.2-12.8-32-12.8s-25.6 6.4-32 12.8-12.8 19.2-12.8 32 6.4 25.6 12.8 32 19.2 12.8 32 12.8 25.6-6.4 32-12.8 12.8-19.2 12.8-32-6.4-25.6-12.8-32zM563.2 460.8c-25.6-19.2-38.4-32-44.8-38.4 0 0-19.2-12.8-19.2-57.6v-19.2h-51.2v19.2c0 44.8 12.8 76.8 44.8 102.4l44.8 44.8c19.2 12.8 32 25.6 38.4 38.4s12.8 25.6 12.8 44.8c0 25.6-12.8 44.8-25.6 57.6s-38.4 19.2-70.4 19.2c-25.6 0-57.6-6.4-96-25.6l-19.2 44.8c44.8 19.2 83.2 32 121.6 32 44.8 0 83.2-12.8 108.8-32s38.4-51.2 38.4-96-25.6-89.6-83.2-134.4z" />
<glyph unicode="&#xe604;" glyph-name="yijian" d="M1024 106.667c0-94.257-76.41-170.667-170.667-170.667v0h-682.667c-94.257 0-170.667 76.41-170.667 170.667v0 682.667c0 94.257 76.41 170.667 170.667 170.667v0h455.111v-2.844c4.205 1.731 9.082 2.769 14.192 2.844h0.030c23.561-0.004 42.66-19.105 42.66-42.667s-19.099-42.663-42.66-42.667v0c-5.14 0.076-10.017 1.113-14.488 2.941l0.266-0.096v-5.404h-423.993c-62.838 0-113.778-50.94-113.778-113.778v0-620.658c0-62.838 50.94-113.778 113.778-113.778h620.43c62.838 0 113.778 50.94 113.778 113.778v0 395.662h5.518c-1.694 4.205-2.728 9.077-2.844 14.175l-0.001 0.048c0.004 23.561 19.105 42.66 42.667 42.66s42.663-19.099 42.667-42.66v0c-0.117-5.145-1.15-10.017-2.943-14.502l0.099 0.28h2.844v-426.667zM487.509 269.653l-153.6-40.391c-4.188-1.041-9.008-1.661-13.964-1.706h-0.030c-0.388-0.015-0.843-0.023-1.301-0.023-9.78 0-18.674 3.797-25.287 9.997l0.020-0.019c-6.372 7.462-10.249 17.222-10.249 27.887 0 4.565 0.71 8.965 2.027 13.094l-0.084-0.305v0.284l40.277 152.462 489.244 487.253c16.459 16.203 39.061 26.207 64 26.207s47.541-10.004 64.012-26.219l33.837-33.837c16.395-16.266 26.544-38.805 26.544-63.716s-10.149-47.45-26.538-63.71l-0.006-0.006zM346.311 290.133l95.061 24.462-70.684 70.258zM786.859 811.236l-382.35-380.871 82.489-82.204 382.379 380.871zM937.017 844.8l-33.849 33.849c-6.227 6.194-14.812 10.024-24.292 10.024s-18.065-3.829-24.293-10.025l0.001 0.001-27.961-27.876 82.489-82.204 27.961 27.876c6.185 6.178 10.011 14.717 10.011 24.149 0 9.461-3.849 18.022-10.066 24.205l-0.002 0.002z" />
<glyph unicode="&#xe605;" glyph-name="chaxun" d="M816.459-60.79c3.041 0 6.181 0.538 9.348 1.529-9.057-1.001-18.256-1.529-27.579-1.529h18.231zM769.66 259.073c-24.048 0-43.555-19.431-43.555-43.405 0-23.975 19.507-43.405 43.555-43.405 24.072 0 43.58 19.43 43.58 43.405s-19.506 43.405-43.58 43.405zM798.226 382.624c-108.821 0-197.041-87.845-197.041-196.241s88.219-196.291 197.041-196.291c108.795 0 197.013 87.896 197.013 196.291 0.001 108.399-88.217 196.241-197.013 196.241zM893.1 71.011c-6.006 0-11.465 2.43-15.412 6.352l-63.831 63.607c-12.979-7.644-28.042-12.087-44.198-12.087-48.12 0-87.13 38.838-87.13 86.787 0 47.923 39.010 86.786 87.13 86.786s87.133-38.862 87.133-86.786c0-16.082-4.468-31.096-12.134-44.026l63.851-63.581c3.921-3.945 6.379-9.357 6.379-15.362 0.001-11.987-9.754-21.689-21.789-21.689zM206.689 778.862c24.077 0 50.837 26.859 50.837 50.837v76.256c0 23.978-16.731 50.837-50.837 50.837-29.19 0-50.837-26.859-50.837-50.837v-76.256c0-23.978 26.76-50.837 50.837-50.837zM435.453 778.862c41.206 0 50.838 26.859 50.838 50.837v76.256c0 23.978-14.199 50.837-50.838 50.837-35.992 0-50.837-26.859-50.837-50.837v-76.256c0-23.978 17.698-50.837 50.837-50.837zM664.217 778.862c33.112 0 50.837 26.859 50.837 50.837v76.256c0 23.978-17.723 50.837-50.837 50.837-29.19 0-50.838-26.859-50.838-50.837v-76.256c0.001-23.978 26.785-50.837 50.838-50.837zM816.727-59.936c3.025 0 6.151 0.535 9.303 1.52-9.015-0.994-18.168-1.52-27.447-1.52h18.144zM551.646 186.053c0 135.829 110.559 245.942 246.936 245.942 24.573 0 48.299-3.594 70.701-10.253l-1.72 382.536c0 23.981-26.758 50.838-50.837 50.838h-50.838v-50.838c0-47.956-53.542-76.255-101.672-76.255s-101.673 28.297-101.673 76.255v50.838h-25.419v-50.838c0-47.956-53.915-76.255-101.672-76.255-77.571 0-101.672 53.715-101.672 101.672v25.42h-25.419v-25.419c-0.051-48.203-38.276-101.276-103.982-101.276-48.13 0-99.364 36.191-99.364 101.276v25.419h-25.419c-24.077 0-50.838-26.857-50.838-50.838v-806.332c0-23.98 26.758-57.884 50.838-57.884h718.983c-136.374 0.001-246.935 110.113-246.935 245.991zM181.271 575.516c0 0 530.159-2.333 531.524 0 24.599 0.893 53.095-14.646 53.095-50.837 0-34.205-26.757-50.837-50.837-50.837h-533.782c-24.078 0-50.837 12.559-50.837 50.837 0.001 32.467 26.758 50.837 50.837 50.837zM410.035 67.152h-228.764c-20.058 0-50.837 11.418-50.837 50.838 0 29.836 30.78 53.568 50.837 53.568l228.764-2.731c20.057 0 50.838-11.022 50.838-50.837 0-31.574-30.781-50.838-50.838-50.838zM460.873 270.499h-279.602c-24.078 0-50.837 15.885-50.837 50.836 0 38.575 26.757 50.837 50.837 50.837h279.601c24.075 0 50.836-18.964 50.836-50.837 0-23.979-26.759-50.836-50.835-50.836z" />
<glyph unicode="&#xe606;" glyph-name="dangshiren" d="M427.3 648.4s29.3-97.4 82.8-97.4h14c53.5 0 82.8 97.4 82.8 97.4 6-4.5 13.5 24 18.1 41.9 4.6 18-10.6 24-10.6 24 22.5 65.9-31.5 125.8-90.3 125.8h-14c-58.8 0-112.7-59.9-90.3-125.8 0 0-15.2-6-10.6-24s12.1-46.4 18.1-41.9zM842.1 274.1s13 14 10 45.9c-3 32-56.9 77.9-56.9 77.9-36.9 66.9-77.9 95.9-84.9 102.9s-27 5-27 5c-27 20-77.9 36.9-77.9 36.9-30-67.9-68.9-120.8-68.9-120.8v109.8h-42.9v-107.9h-1s-50.9 93.9-57.9 107.8c-7 14-19 17-26.3 11-7.4-6-42.6-23-89.5-46.9-46.9-24-57.9-54.9-80.9-92.9-23-37.8-54-54.8-54-84.8s-2-44.9-2-44.9h-81.9v-30h97.9s25-83.9 46.9-121.8c22-37.9 60.9-9 60.9-9 34 19 24 47.9 24 47.9l-53.9 136.8 21 11 28-64.9h280.6l110.7 87.9 12-15s-68.9-54.9-90.9-72.9c-22-18-46.9-37.9-46.9-54.9s10-32 10-32c16-19 38.9-29 59.9-19s135.8 105.8 135.8 105.8h133.8v31h-87.8zM379.7 213.2l-61.9-160.8h279.6l-60.9 160.8h-156.8z" />
<glyph unicode="&#xe607;" glyph-name="dui" d="M512 898c-248.555 0-450-201.445-450-450s201.445-450 450-450c248.555 0 450 201.445 450 450s-201.445 450-450 450v0zM770.135 564.719l-291.094-291.006c-13.447-13.447-33.838-15.557-49.482-6.328-2.901 1.67-5.625 3.779-8.086 6.328 0 0 0 0 0 0l-167.607 167.519c-15.908 15.908-15.908 41.661 0 57.568s41.661 15.908 57.568 0l138.867-138.692 262.266 262.266c15.908 15.908 41.66 15.908 57.568 0 15.908-15.996 15.908-41.748 0-57.656v0z" />
<glyph unicode="&#xe608;" glyph-name="edit" d="M64.011-0.12l104.433 45.004-59.676 60.666zM241.726 336.734l168.784-171.597 464.16 471.896-168.784 171.611zM839.792 895.010c-41.916 0-78.63-22.058-99.93-55.29l164.894-167.647c32.679 21.65 54.387 58.976 54.387 101.605 0.001 67.003-53.439 121.332-119.35 121.332zM124.416 136.816l75.118-72.22 177.773 69.408-162.242 164.938z" />
<glyph unicode="&#xe609;" glyph-name="fagui" d="M957.1 355.1l-496.2-100.1c-12.7-40.2-12-79.6 4-118.7l485.8 109.7 6.8-30.1-498.2-112.5-14.4 2.6-327.9 203.2c-18 41.1-23.9 82.6 0 125.5l32 4.9v-10.8l420-93.8c11.7 28.4 18.8 64.8 3 97.9l-426.1 86 4 29.5 2 0.6v0.1h0.3l25.6 7.8 1 26.3 390.5-94.5c10.3 28.7 16.4 57.1 2.9 90.6l-394.5 86.8v39.9l310.5 79 359.8-73.1c19-35.1 14.3-68.1 0-100.1l-26-14.8 48-7.4c20.6-36.9 15.5-72.8 0-108.1l-79-49 167.2-45.5-1.1-31.9zM485.5 178.5l1.5-7.5 452.4 93.5-1.6 7.6-452.3-93.6zM484 209.3l1.6-7.6 452.4 93.5-1.6 7.6-452.4-93.5zM482.3 236.4l1.8-9 452.4 93.5-1.8 9-452.4-93.5z" />
<glyph unicode="&#xe60a;" glyph-name="faxian" d="M512 768.484c-0.164 0-0.359 0-0.554 0-176.999 0-320.484-143.486-320.484-320.484s143.486-320.484 320.484-320.484c176.998 0 320.484 143.485 320.484 320.484v0c0 0 0 0 0 0 0 176.804-143.17 320.169-319.9 320.484h-0.030zM512 167.092c-0.247-0.001-0.538-0.001-0.83-0.001-155.141 0-280.908 125.767-280.908 280.908s125.767 280.908 280.908 280.908c155.141 0 280.908-125.766 280.908-280.907v0c0 0 0-0.001 0-0.001 0-154.849-125.294-280.435-280.032-280.907h-0.045zM687.741 640.899c-0.873 0.2-1.876 0.315-2.906 0.315s-2.033-0.115-2.997-0.332l0.091 0.017-241.055-110.703c-3.141-1.568-5.628-4.054-7.154-7.105l-0.041-0.091-110.703-241.885c-0.777-1.713-1.23-3.714-1.23-5.821 0-3.865 1.523-7.374 4.002-9.959l-0.005 0.005c2.591-2.487 6.085-4.050 9.944-4.151h0.020c0.873-0.122 1.881-0.192 2.906-0.192s2.033 0.070 3.021 0.204l-0.115-0.013 241.055 110.703c3.141 1.568 5.628 4.054 7.154 7.105l0.041 0.091 110.703 241.885c0.791 1.708 1.252 3.706 1.252 5.813 0 7.749-6.245 14.040-13.976 14.114h-0.007zM559.602 403.719l-172.143-78.599 78.599 173.25 172.973 78.599zM511.723 414.236c0.036 0 0.079 0 0.122 0 10.799 0 20.559 4.45 27.546 11.616l0.008 0.008c7.111 7.070 11.512 16.859 11.512 27.676s-4.401 20.606-11.51 27.674l-0.002 0.002c-7.158 6.916-16.919 11.177-27.676 11.177s-20.517-4.261-27.687-11.188l0.011 0.011c-7.111-7.070-11.512-16.859-11.512-27.676s4.401-20.606 11.51-27.674l0.002-0.002c6.865-7.17 16.514-11.627 27.204-11.627 0.166 0 0.331 0.001 0.497 0.003h-0.025z" />
<glyph unicode="&#xe60b;" glyph-name="home" d="M807.564-15.127h-605.091c-39.564 0-62.836 16.291-76.8 30.255-27.927 30.255-25.6 72.145-23.273 83.782v360.727h65.164v-367.709c0-6.982 0-25.6 9.309-37.236 2.327-2.327 6.982-9.309 27.927-9.309h605.091c2.327 0 23.273 0 34.909 11.636 9.309 6.982 13.964 20.945 13.964 39.564v363.055h65.164v-360.727c0-46.545-18.618-72.145-34.909-86.109-30.255-25.6-65.164-27.927-81.455-27.927zM134.982 429.382h-100.073c-13.964 0-25.6 9.309-30.255 20.945s-2.327 25.6 9.309 34.909l474.764 421.236c11.636 11.636 30.255 11.636 41.891 0l481.745-416.582c9.309-9.309 13.964-23.273 9.309-34.909s-16.291-20.945-30.255-20.945l-104.727-2.327c-16.291 0-32.582 13.964-32.582 30.255 0 18.618 13.964 32.582 30.255 32.582h23.273l-395.636 344.436-390.982-344.436h13.964c18.618 0 32.582-13.964 32.582-32.582s-16.291-32.582-32.582-32.582zM402.618 15.127c-13.964 0-27.927 11.636-27.927 27.927v225.745c0 4.655 2.327 25.6 20.945 44.218 23.273 23.273 62.836 34.909 116.364 34.909s90.764-11.636 114.036-34.909c18.618-20.945 20.945-41.891 20.945-46.545v-223.418c0-13.964-11.636-27.927-27.927-27.927s-27.927 11.636-27.927 27.927v221.091c0 2.327-2.327 6.982-6.982 11.636-6.982 6.982-27.927 16.291-72.145 16.291-53.527 0-72.145-13.964-76.8-18.618-2.327-2.327-4.655-4.655-4.655-6.982v-225.745c0-11.636-13.964-25.6-27.927-25.6zM409.6 231.564l-9.309-207.127-239.709 13.964-16.291 253.673 4.655 165.236-72.145 23.273 432.873 390.982 425.891-370.036-44.218-41.891-18.618-370.036-16.291-58.182-225.745-6.982-2.327 148.945-13.964 100.073-27.927 23.273-55.855 9.309-111.709-11.636-9.309-62.836z" />
<glyph unicode="&#xe60c;" glyph-name="jia" d="M510.6 894.7c-246.6 0-446.4-199.9-446.4-446.5s199.8-446.4 446.4-446.4 446.4 199.9 446.4 446.4-199.9 446.5-446.4 446.5zM758.6 398.6h-198.4v-198.4h-99.2v198.4h-198.4v99.2h198.4v198.5h99.2v-198.4h198.4v-99.3z" />
<glyph unicode="&#xe60d;" glyph-name="jianxing" d="M564.322 650.654v-336.433c48.811 15.043 88.576 50.786 109.056 96.963v142.507c-20.48 46.153-60.245 81.896-109.056 96.963zM356.059 563.273v-161.694c21.967-42.374 60.66-74.703 107.349-88.21v338.139c-46.69-13.531-85.382-45.861-107.349-88.235zM63.902 960h57.49v-1024h-57.49v1024zM772.584 278.674v-342.674h70.51v259.779c-19.822 30.842-43.593 58.709-70.51 82.895zM564.322 211.627v-275.627h107.349v390.144c-12.459-53.833-53.687-97.207-107.349-114.517zM356.059 315.416v-379.416h107.349v274.725c-51.444 15.531-91.892 54.93-107.349 104.692zM181.004 190.952v-254.952h74.142v343.186c-28.55-25.551-53.565-55.247-74.142-88.235zM277.48 960h57.49v-1024h-57.49v1024zM481.378 960h57.466v-1024h-57.466v1024zM696.125 960h57.466v-1024h-57.466v1024zM902.607 960h57.49v-1024h-57.49v1024z" />
<glyph unicode="&#xe60e;" glyph-name="jianyu" d="M512 960l-512-320h1024l-512 320zM800 576l32-64v-384h128v384l32 64h-192zM544 576l32-64v-384h128v384l32 64h-192zM288 576l32-64v-384h128v384l32 64h-192zM32 576l32-64v-384h128v384l32 64h-192zM32 64l-32-128h1024l-32 128h-960zM576 768c0-35.346-28.654-64-64-64s-64 28.654-64 64 28.654 64 64 64 64-28.654 64-64z" />
<glyph unicode="&#xe60f;" glyph-name="jinrong" d="M514.216 922.128c2.216 0 4.432 0 6.648 2.216 4.432 2.216 11.080 8.864 17.728 15.512 8.864 8.864 17.728 13.296 26.592 17.728s19.944 2.216 35.456-2.216c6.648-2.216 13.296-4.432 17.728-8.864l13.296-13.296c4.432-4.432 8.864-6.648 13.296-8.864s11.080-4.432 17.728-4.432 13.296 2.216 19.944 4.432c4.432 2.216 11.080 4.432 15.512 6.648 2.216 0 8.864 2.216 13.296 2.216s11.080 0 17.728-2.216c6.648-2.216 13.296-6.648 15.512-13.296s4.432-11.080 2.216-17.728c-2.216-6.648-4.432-11.080-8.864-17.728s-8.864-11.080-15.512-15.512c-13.296-8.864-24.376-17.728-33.24-26.592-6.648-8.864-15.512-19.944-22.16-28.808-4.432-4.432-8.864-11.080-13.296-17.728l-13.296-19.944c-4.432-8.864-8.864-15.512-15.512-24.376h-228.25c-4.432 8.864-11.080 17.728-15.512 26.592-4.432 6.648-8.864 15.512-15.512 22.16l-13.296 19.944c-6.648 11.080-15.512 22.16-24.376 28.808-8.864 8.864-17.728 15.512-26.592 22.16s-15.512 15.512-19.944 26.592c-4.432 11.080 0 22.16 11.080 28.808 4.432 6.648 8.864 8.864 15.512 8.864s13.296-2.216 22.16-4.432c6.648-2.216 15.512-4.432 22.16-6.648s13.296-2.216 19.944-2.216c11.080 2.216 17.728 6.648 24.376 11.080 4.432 6.648 13.296 13.296 26.592 19.944 8.864 6.648 19.944 8.864 33.24 6.648 11.080-2.216 19.944-6.648 26.592-11.080 2.216-4.432 6.648-6.648 8.864-8.864 4.432-2.216 6.648-4.432 11.080-6.648 2.216-4.432 6.648-6.648 11.080-8.864zM640.529 698.31c8.864-11.080 19.944-24.376 33.24-39.888 11.080-13.296 24.376-26.592 42.104-42.104 15.512-15.512 35.456-33.24 57.616-50.968 17.728-15.512 35.456-33.24 55.4-55.4s35.456-46.536 48.752-75.345c13.296-28.808 24.376-62.048 28.808-97.505 6.648-37.672 4.432-77.561-2.216-124.097-6.648-37.672-19.944-73.129-39.888-106.369s-46.536-62.048-79.777-86.425-70.913-44.32-117.449-59.832c-44.32-15.512-97.505-22.16-152.905-22.16-59.832 0-110.801 8.864-157.337 24.376-46.536 17.728-84.209 37.672-115.233 66.481-31.024 26.592-57.616 57.616-75.345 90.857s-31.024 66.481-37.672 99.721c-6.648 35.456-6.648 70.913-2.216 104.153s13.296 64.265 26.592 95.289c13.296 28.808 28.808 55.4 46.536 81.993 19.944 24.376 39.888 46.536 62.048 66.481 19.944 17.728 37.672 33.24 53.184 48.752s28.808 28.808 39.888 42.104c13.296 13.296 24.376 26.592 33.24 39.888h252.626zM516.432 354.827l-55.4 55.4c-6.648 6.648-13.296 13.296-15.512 17.728-6.648 4.432-13.296 8.864-24.376 13.296-8.864 4.432-17.728 2.216-24.376-6.648s-6.648-15.512-4.432-24.376c2.216-8.864 6.648-13.296 11.080-17.728l17.728-15.512c8.864-8.864 17.728-17.728 26.592-28.808l37.672-37.672-2.216-24.376h-75.345c-6.648 0-13.296-2.216-17.728-8.864-4.432-4.432-6.648-11.080-6.648-17.728s2.216-11.080 6.648-15.512c4.432-4.432 11.080-6.648 17.728-6.648h75.345v-39.888h-75.345c-6.648 0-13.296-2.216-17.728-6.648s-6.648-8.864-6.648-15.512c0-6.648 2.216-11.080 6.648-15.512s11.080-6.648 17.728-6.648h75.345v-22.16c0-11.080 4.432-17.728 11.080-22.16s13.296-6.648 22.16-6.648 15.512 2.216 22.16 8.864c6.648 6.648 8.864 13.296 8.864 19.944v22.16h77.561c6.648 0 13.296 2.216 17.728 4.432 4.432 4.432 6.648 8.864 6.648 15.512 0 15.512-11.080 24.376-31.024 24.376h-70.913l2.216 37.672 73.129 2.216c11.080 0 17.728 2.216 22.16 6.648s6.648 11.080 6.648 17.728c0 6.648-2.216 11.080-6.648 15.512s-13.296 6.648-22.16 6.648h-73.129v22.16c13.296 11.080 24.376 24.376 35.456 35.456l46.536 46.536c17.728 15.512 19.944 28.808 11.080 39.888-4.432 6.648-11.080 11.080-19.944 11.080s-15.512-2.216-22.16-8.864c-4.432-2.216-11.080-8.864-19.944-15.512-8.864-8.864-17.728-15.512-26.592-24.376-13.296-13.296-24.376-24.376-37.672-35.456z" />
<glyph unicode="&#xe610;" glyph-name="jisuan" d="M422.736 894.3h-297.546c-32.777 0-59.509-26.79-59.509-59.506v-297.532c0-32.717 26.732-59.507 59.509-59.507h297.545c32.66 0 59.509 26.79 59.509 59.507v297.532c0.001 32.716-26.848 59.506-59.508 59.506zM422.736 656.274h-297.546v59.507h297.545v-59.507zM898.809 894.3h-297.547c-32.776 0-59.508-26.79-59.508-59.506v-773.587c0-32.718 26.732-59.506 59.508-59.506h297.547c32.659 0 59.508 26.789 59.508 59.506v773.587c0.001 32.716-26.849 59.506-59.508 59.506zM898.809 358.74h-297.547v59.506h297.547v-59.506zM898.809 537.26h-297.547v59.506h297.547v-59.506zM422.736 418.247h-297.546c-32.777 0-59.509-26.79-59.509-59.506v-297.534c0-32.718 26.732-59.506 59.509-59.506h297.545c32.66 0 59.509 26.789 59.509 59.506v297.533c0.001 32.717-26.848 59.507-59.508 59.507zM422.736 180.22h-119.018v-119.014h-59.509v119.014h-119.018v59.506h119.017v119.014h59.509v-119.014h119.018v-59.506z" />
<glyph unicode="&#xe611;" glyph-name="jiufen" d="M418.87 167.306h-262.703v411.406h168.881v168.302h243.939v-355.303c16.553 0 39.756 6.313 54.847 1.847v409.557h-357.247l-166.712-165.801v-526.108h356.525c-13.946 13.597-29.053 38.348-37.529 56.1zM512.693 541.312h-300.231v-18.7h300.231v18.7zM512.693 503.91h-300.231v-37.4h300.231v37.4zM512.693 447.81h-300.231v-18.702h300.231v18.702zM212.461 391.711v-18.701h187.645v37.399h-187.645v-18.698zM576.209 376.753c-78.926 0-142.908-63.633-142.908-142.124 0-78.488 63.982-142.121 142.908-142.121 78.909 0 142.894 63.633 142.894 142.121 0 78.49-63.984 142.124-142.894 142.124zM548.008 159.938v-0.009l-0.008-0.011h-0.012l-69.49-22.459 22.582 69.102v0.038h0.029l125.893 125.195 46.908-46.647-125.901-125.208zM495.285 154.157l46.917 15.148-31.672 31.508-15.246-46.656z" />
<glyph unicode="&#xe612;" glyph-name="laba" d="M513.6 50.4c-7.2 0-13.6 2.4-19.2 7.2 0 0-40.8 36.8-87.2 76-78.4 64.8-103.2 77.6-108.8 79.2h-205.6c-12.8 0-23.2 10.4-23.2 24v422.4c0 12.8 10.4 24 23.2 24h185.6c6.4 2.4 32.8 13.6 120.8 80 51.2 38.4 97.6 76 97.6 76 4.8 4 11.2 6.4 17.6 6.4 4 0 8.8-0.8 12.8-3.2 9.6-4.8 16-15.2 16-26.4v-736c0-11.2-6.4-22.4-16.8-27.2-4.8-1.6-8.8-2.4-12.8-2.4zM300 260.8c16.8 0 42.4-7.2 147.2-93.6 14.4-12 29.6-24.8 45.6-38.4l4.8-4v650.4l-4.8-3.2c-20-15.2-39.2-30.4-57.6-44-115.2-86.4-140.8-92.8-157.6-92.8h-143.2c-17.6 0-19.2-11.2-19.2-23.2v-324c0-20.8 5.6-26.4 24.8-26.4h158.4l1.6-0.8zM757.6 118.4c-12.8 0-23.2 10.4-23.2 24 0 10.4 7.2 17.6 14.4 21.6 99.2 59.2 160 168 160 284.8s-61.6 225.6-160 284.8c-8.8 4.8-13.6 12.8-13.6 21.6 0 12.8 10.4 24 23.2 24 4.8 0 8.8-1.6 14.4-4.8 112.8-67.2 182.4-192 182.4-324.8 0-133.6-70.4-257.6-183.2-324.8-5.6-4.8-9.6-6.4-14.4-6.4zM678.4 252.8c-12.8 0-23.2 10.4-23.2 24 0 8.8 4 16 11.2 20.8 54.4 30.4 88 88 88 150.4 0 61.6-32.8 118.4-84.8 149.6-7.2 4-11.2 12-11.2 20.8 0 12.8 10.4 24 23.2 24 4 0 10.4-2.4 13.6-4 65.6-39.2 107.2-112 107.2-189.6 0-79.2-42.4-152.8-110.4-192-1.6 0-8-4-13.6-4z" />
<glyph unicode="&#xe613;" glyph-name="left" d="M621.6 249.6c6.9 0 12.8 2.9 17.6 8.8 3.8 4.8 5.3 10.3 4.7 16.3-0.7 6-3.5 11.1-8.3 15.3l-197.1 158.7 196 157.8c5.2 4.1 8 9.2 8.5 15.3 0.5 6-1.2 11.5-5.2 16.3s-9 7.6-15 8.3c-6 0.7-11.5-0.9-16.3-4.6l-218.2-175.5c-5.5-4.5-8.3-10.3-8.3-17.6s2.8-13.1 8.3-17.6l219.3-176.4c4.1-3.4 8.8-5.1 14-5.1z" />
<glyph unicode="&#xe614;" glyph-name="more" d="M168.457 552.441c-57.676 0-104.453-46.738-104.453-104.453 0-57.695 46.758-104.433 104.453-104.433s104.453 46.738 104.453 104.433c-0.020 57.715-46.777 104.453-104.453 104.453zM501.582 552.441c-57.676 0-104.453-46.738-104.453-104.453 0-57.695 46.758-104.433 104.453-104.433s104.453 46.738 104.453 104.433c0 57.715-46.758 104.453-104.453 104.453zM855.547 552.441c-57.695 0-104.453-46.738-104.453-104.453 0-57.695 46.758-104.433 104.453-104.433s104.453 46.738 104.453 104.433c0 57.715-46.777 104.453-104.453 104.453z" />
<glyph unicode="&#xe615;" glyph-name="muban" d="M732.48 849.792h-567.168c-52.176-0.091-94.451-42.354-94.56-94.518v-724.714c0.091-52.187 42.373-94.469 94.551-94.56h567.177c52.202 0.055 94.505 42.358 94.56 94.555v724.709c-0.109 52.174-42.384 94.437-94.551 94.528h-0.009zM764.16 30.432c-0.018-17.425-14.13-31.548-31.549-31.584h-567.203c-17.422 0.036-31.534 14.159-31.552 31.582v724.706c0 17.44 14.24 31.552 31.552 31.552h567.168c17.472 0 31.552-14.24 31.552-31.552v-724.704zM953.248 865.216v-724.192c-0.072-52.169-42.281-94.456-94.413-94.656h-0.019v62.976c17.27 0.181 31.2 14.223 31.2 31.518 0 0.057 0 0.114 0 0.17v-0.009 724.192c0 0.048 0 0.105 0 0.162 0 17.302-13.927 31.351-31.182 31.55h-567.699c-17.253-0.18-31.169-14.208-31.169-31.486 0-0.079 0-0.159 0.001-0.238v0.012h-62.976c0 0.019 0 0.042 0 0.065 0 52.166 42.171 94.483 94.281 94.719h567.703c52.108-0.2 94.272-42.488 94.272-94.623 0-0.056 0-0.113 0-0.169v0.009zM194.432 688.672h226.176v-330.336h-226.176v330.336zM194.432 292.256h226.176v-198.176h-226.176v198.176zM477.312 688.672h226.208v-198.176h-226.208v198.176zM477.312 424.416h226.208v-330.336h-226.208v330.336z" />
<glyph unicode="&#xe616;" glyph-name="paimai" horiz-adv-x="1025" d="M960.472-64h-575.641c-35.324 0-63.96 28.636-63.96 63.96s28.636 63.96 63.96 63.96v0h575.641c35.324 0 63.96-28.636 63.96-63.96s-28.636-63.96-63.96-63.96v0zM631.077 482.859l-87.178 87.625-422.137-420.218c-12.901-12.972-30.761-21.001-50.497-21.001-39.328 0-71.21 31.882-71.21 71.21 0 19.592 7.912 37.337 20.716 50.212l-0.003-0.003 422.137 420.218-89.16 89.544c-20.764 21.156-33.58 50.175-33.58 82.188 0 64.82 52.547 117.367 117.367 117.367 32.171 0 61.32-12.944 82.521-33.908l277.192-276.936c22.082-21.398 35.788-51.329 35.788-84.461 0-64.926-52.633-117.559-117.559-117.559-33.1 0-63.005 13.68-84.37 35.694l-0.028 0.029z" />
<glyph unicode="&#xe617;" glyph-name="panjue" d="M128 960h768c70.692 0 128-57.308 128-128v0-768c0-70.692-57.308-128-128-128v0h-768c-70.692 0-128 57.308-128 128v0 768c0 70.692 57.308 128 128 128v0zM768.544 64.544c21.536 0 38.848 17.76 38.848 39.68v687.488c0 21.888-17.312 39.68-38.848 39.68h-38.816v-766.88h38.816zM237.92 104.224c0-21.92 17.376-39.68 38.816-39.68h414.208v766.88h-414.208c-21.44 0-38.816-17.792-38.816-39.68v-39.744h64.704c42.88 0 77.632-35.488 77.632-79.296 0-43.776-34.784-79.296-77.632-79.296h-64.704v-66.176h64.704c42.88 0 77.632-35.488 77.632-79.296 0-43.776-34.784-79.296-77.632-79.296h-64.704v-66.24h64.704c42.88 0 77.632-35.488 77.632-79.264 0-43.744-34.784-79.296-77.632-79.296h-64.704v-39.648zM341.504 672.704c0 21.92-17.44 39.68-38.848 39.68h-103.584c-21.408 0-38.752-17.76-38.752-39.68 0-21.888 17.344-39.68 38.752-39.68h103.584c21.44 0 38.848 17.792 38.848 39.68zM199.104 487.616c-21.44 0-38.784-17.76-38.784-39.68 0-21.888 17.344-39.616 38.752-39.616h103.584c21.44 0 38.848 17.728 38.848 39.616 0 21.92-17.44 39.68-38.848 39.68h-103.584zM199.104 262.848c-21.44 0-38.784-17.76-38.784-39.68 0-21.888 17.344-39.616 38.752-39.616h103.584c21.44 0 38.848 17.728 38.848 39.616 0 21.92-17.44 39.68-38.848 39.68h-103.584z" />
<glyph unicode="&#xe618;" glyph-name="picture" d="M966.419-12.559h-908.833c-31.752 0-57.586 26.003-57.586 57.975v805.184c0 31.961 25.834 57.96 57.586 57.96h908.946c31.69 0 57.468-25.942 57.468-57.837v-805.307c0-31.972-25.829-57.975-57.581-57.975zM934.975 76.205v743.59h-845.945v-743.59h845.945zM438.973 286.304l226.924 324.037 257.406-488.579h-97.661l-164.592 315.279-221.836-316.794-116.707 164.194-118.648-162.679h-107.877l226.484 328.419 116.507-163.877zM322.711 505.176c-52.641 0-95.47 43.161-95.47 96.217s42.829 96.227 95.47 96.227c52.646 0 95.475-43.172 95.475-96.227s-42.828-96.217-95.475-96.217z" />
<glyph unicode="&#xe619;" glyph-name="police" d="M506.584-56.832c-35.676 0-103.669 15.596-168.652 49.832-54.191 28.551-125.206 79.918-155.779 162.468l-1.199 3.24-3.333 0.91c-31.957 8.714-64.432 27.097-89.102 50.433-19.528 18.471-42.807 48.326-42.807 85.646 0 59.411 31.77 108.387 80.939 124.776l4.593 1.53v10.545c0 8.629 3.957 12.584 9.436 18.054l1.969 1.968v2.784c0 10.917 0 21.226 4.994 31.208l0.71 1.419v10.073l-1.968 1.968c-2.488 2.488-5.553 5.552-7.5 8.215 27.709 8.958 147.657 43.042 367.696 43.042s339.985-34.084 367.697-43.043c-1.948-2.662-5.011-5.726-7.498-8.215l-11.467-11.467h15.235c0.191-3.077 1.204-6.54 2.36-10.488 1.549-5.292 3.303-11.29 3.303-17.009v-2.782l1.966-1.967c5.485-5.482 9.44-9.439 9.44-18.058v-10.545l4.593-1.531c50.884-16.957 80.425-67.954 75.261-129.921l-0.023-0.276v-0.28c0-26.993-15.226-56.673-42.871-83.573-25.236-24.557-58.518-44.184-89.030-52.507l-3.33-0.909-1.2-3.24c-30.574-82.551-101.592-133.918-155.783-162.469-64.984-34.237-132.978-49.832-168.651-49.832zM249.255 196.8c35.855-130.898 211.959-187.23 263.031-187.23 29.569 0 86.445 14.726 137.936 42.875 46.524 25.433 106.002 71.168 125.162 144.618l0.217 0.833v0.864c0 12.832 13.653 21.792 33.205 21.792 18.077 0 54.157 19.765 71.846 44.312 9.345 12.966 12.439 25.933 8.987 37.583-0.225 18.126-6.261 30.195-12.103 41.872l-4.17 8.332-6.588-6.588c-4.688-4.688-14.354-9.434-23.759-9.434-19.568 0-33.204 14.488-33.204 27.491v34.213c0 11.79 0 29.603-6.048 47.748l-2.615 7.844-7.142-4.168c-60.677-35.396-168.048-73.216-287.43-73.216-122.658 0-232.973 46.001-287.813 73.422l-9.722 4.862v-10.869c0-4.517-1.122-10.631-2.311-17.103-1.589-8.666-3.393-18.485-3.393-28.518v-34.214c0-13.003-13.631-27.491-33.194-27.491-9.408 0-19.074 4.745-23.762 9.434l-6.589 6.588-4.168-8.332c-5.957-11.909-12.117-24.223-12.117-42.923 0-22.923 24.479-44.48 39.071-55.288 19.668-14.572 42.53-25.554 53.179-25.554 14.758-0.002 28.812-9.981 33.492-23.753zM96.485 583.369c-4.284 33.502-32.986 74.224-58.544 110.479-10.736 15.23-20.876 29.616-27.384 41.122-8.635 15.266-7.351 19.356-7.009 20.020 0.282 0.544 2.094 1.57 6.936 1.57 232.22 0 327.264 79.797 396.661 138.061 37.146 31.186 66.486 55.819 105.142 55.819 40.164 0 74.536-26.106 118.051-59.16 74.854-56.855 177.37-134.72 383.749-134.72 3.496 0 5.258-0.435 6.040-0.722-0.308-1.555-2.065-6.228-11.576-17.25-8.322-9.648-20.252-21.56-32.882-34.169-37.378-37.319-83.16-83.028-87.789-120.274-12.694 3.677-39.529 10.593-82.273 17.55-56.172 9.143-151.67 20.042-287.619 20.042-228.648 0-385.732-30.678-421.505-38.369zM408.629 729.065c0-19.038 17.382-39.425 51.659-60.597 24.419-15.084 48.432-25.028 49.442-25.444l2.557-1.054 2.558 1.054c1.010 0.415 25.020 10.361 49.44 25.444 34.276 21.172 51.655 41.558 51.655 60.598v6.717h-5.698v79.836h-201.612v-86.554zM369.727 222.58c-16.245 0-32.147 6.588-43.633 18.071-11.489 11.496-18.079 27.4-18.079 43.638 0 16.237 6.59 32.144 18.079 43.642 11.487 11.481 27.39 18.070 43.633 18.070 16.246 0 32.154-6.588 43.641-18.074 11.482-11.492 18.068-27.395 18.068-43.638 0-16.241-6.585-32.148-18.070-43.641-11.486-11.481-27.39-18.069-43.638-18.069zM671.949 222.58c-16.244 0-32.147 6.588-43.634 18.071-11.485 11.492-18.072 27.395-18.072 43.638s6.588 32.149 18.075 43.642c11.485 11.481 27.389 18.070 43.632 18.070s32.15-6.588 43.637-18.074c11.486-11.494 18.075-27.398 18.075-43.638 0-16.238-6.589-32.146-18.076-43.641-11.485-11.481-27.391-18.069-43.636-18.069z" />
<glyph unicode="&#xe61a;" glyph-name="remove" d="M762.218 825.135h-499.068c-45.947 0-83.178-37.228-83.178-83.175v-27.725h665.422v27.725c0.001 45.947-37.229 83.175-83.177 83.175zM616.927 880.585l12.238-87.507h-232.962l12.237 87.507h208.488zM623.588 936.035h-221.805c-22.88 0-44.162-18.52-47.357-41.209l-16.219-116.016c-3.168-22.66 12.97-41.181 35.85-41.181h277.258c22.879 0 39.017 18.519 35.823 41.208l-16.22 116.017c-3.17 22.662-24.451 41.181-47.33 41.181zM776.081 658.787h-526.793c-30.488 0-53.205-24.855-50.443-55.233l45.435-499.479c2.734-30.379 29.973-55.233 60.46-55.233h415.89c30.487 0 57.726 24.856 60.46 55.233l45.434 499.48c2.761 30.377-19.956 55.232-50.443 55.232zM401.78 159.74h-83.178l-27.726 388.147h110.904v-388.147zM568.136 159.74h-110.903v388.147h110.904v-388.147zM706.765 159.74h-83.178v388.147h110.903l-27.724-388.147z" />
<glyph unicode="&#xe61b;" glyph-name="right" d="M402.4 646.4c-6.9 0-12.8-2.9-17.6-8.8-3.8-4.8-5.3-10.3-4.6-16.3s3.5-11.1 8.3-15.3l197.1-158.8-196-157.8c-5.2-4.1-8-9.2-8.5-15.3-0.5-6 1.2-11.5 5.2-16.3s9-7.6 15-8.3c6-0.7 11.5 0.9 16.3 4.6l218.3 175.3c5.5 4.5 8.3 10.3 8.3 17.6 0 7.2-2.8 13.1-8.3 17.6l-219.5 176.7c-4.1 3.4-8.8 5.1-14 5.1z" />
<glyph unicode="&#xe61c;" glyph-name="search" d="M484.644 270.397c-57.678 0-111.835 22.472-152.584 63.221-40.824 40.749-63.221 94.906-63.221 152.584s22.472 111.835 63.221 152.584c40.749 40.824 94.906 63.221 152.584 63.221s111.835-22.472 152.584-63.221 63.221-94.981 63.221-152.584-22.472-111.835-63.221-152.584-94.906-63.221-152.584-63.221zM484.644 661.408c-46.816 0-90.787-18.202-123.895-51.311s-51.311-77.079-51.311-123.895 18.202-90.787 51.311-123.895 77.079-51.311 123.895-51.311 90.787 18.202 123.895 51.311 51.311 77.079 51.311 123.895-18.202 90.787-51.311 123.895c-33.109 33.034-77.079 51.311-123.895 51.311zM726.292 191.82l-130.187 130.187c-7.94 7.94-7.94 20.824 0 28.764s20.824 7.94 28.764 0l130.187-130.187c7.94-7.94 7.94-20.824 0-28.764s-20.824-7.94-28.764 0z" />
<glyph unicode="&#xe61d;" glyph-name="shizhong" d="M512-7.111c-129.195 2.958-236.601 47.246-322.219 132.892-85.618 85.618-129.934 193.024-132.892 322.219 2.958 129.195 47.246 236.601 132.892 322.219 85.618 85.618 193.024 129.934 322.219 132.892 129.195-2.958 236.601-47.246 322.219-132.892 85.618-85.618 129.934-193.024 132.892-322.219-2.958-129.195-47.246-236.601-132.892-322.219-85.618-85.618-193.024-129.934-322.219-132.892zM512 448v256c0 15.709-12.735 28.444-28.444 28.444s-28.444-12.735-28.444-28.444v0-284.444c0-15.709 12.735-28.444 28.444-28.444h227.556c15.709 0 28.444 12.735 28.444 28.444s-12.735 28.444-28.444 28.444v0h-199.111z" />
<glyph unicode="&#xe61e;" glyph-name="tingshen" d="M993.26 7.7h-250.849c155.464 85.228 260.884 250.378 260.884 440.177 0 277.053-224.604 501.647-501.647 501.647-277.053 0-501.647-224.604-501.647-501.647s224.594-501.637 501.637-501.637c2.683 0 5.345 0.061 8.028 0.102 0.655-0.041 1.331-0.102 2.007-0.102h481.577c0.002 0 0.003 0 0.005 0 16.972 0 30.73 13.758 30.73 30.73 0 16.97-13.755 30.727-30.725 30.73v0zM754.432 542.095c0.409 0.007 0.891 0.010 1.375 0.010 50.955 0 92.262-41.307 92.262-92.262s-41.307-92.262-92.262-92.262c-0.483 0-0.966 0.004-1.447 0.011l0.073-0.001c-50.36 0.774-90.888 41.78-90.888 92.252s40.527 91.478 90.815 92.251l0.073 0.001zM501.637 792.924c0.001 0 0.003 0 0.005 0 50.955 0 92.262-41.307 92.262-92.262 0-50.953-41.304-92.259-92.257-92.262v0c-0.001 0-0.003 0-0.005 0-50.955 0-92.262 41.307-92.262 92.262 0 50.953 41.304 92.259 92.257 92.262v0zM247.777 352.573c-0.409-0.007-0.891-0.010-1.375-0.010-50.955 0-92.262 41.307-92.262 92.262s41.307 92.262 92.262 92.262c0.483 0 0.966-0.004 1.447-0.011l-0.073 0.001c50.36-0.774 90.888-41.78 90.888-92.252s-40.527-91.478-90.815-92.251l-0.073-0.001zM409.385 193.997c0.003 50.956 41.311 92.262 92.268 92.262s92.268-41.31 92.268-92.268c0-0.002 0-0.004 0-0.005v0c-0.003-50.956-41.311-92.262-92.268-92.262s-92.268 41.31-92.268 92.268c0 0.002 0 0.004 0 0.005v0z" />
<glyph unicode="&#xe61f;" glyph-name="user" d="M106.291-53.76c-0.614 8.192-0.922 16.384-0.922 24.678 0 203.059 182.374 368.128 406.63 368.128s406.63-165.171 406.63-368.128c0-8.294-0.307-16.486-0.922-24.678h69.222c0.512 8.192 0.717 16.384 0.717 24.678 0 59.494-12.8 117.248-37.888 171.52-24.166 52.224-58.675 99.021-102.605 139.162-69.632 63.59-156.877 104.96-251.494 120.32 112.947 35.84 195.072 142.234 195.072 267.571 0 154.419-125.030 280.269-278.733 280.269s-278.733-125.85-278.733-280.474c0-125.338 82.125-231.731 195.072-267.571-94.72-15.36-181.965-56.73-251.494-120.32-43.93-40.141-78.438-86.938-102.605-139.162-25.19-54.272-37.888-112.026-37.888-171.52 0-8.294 0.205-16.486 0.717-24.678l69.222 0.205zM304.435 669.286c0 115.2 93.082 208.896 207.565 208.896s207.565-93.696 207.565-208.896c0-115.2-93.082-208.896-207.565-208.896s-207.565 93.798-207.565 208.896z" />
<glyph unicode="&#xe620;" glyph-name="weituo" d="M885.948 132.937c-12.074-17.586-25.48-33.102-41.896-46.157-29.682-23.593-63.386-39.25-98.926-51.425-30.257-10.366-61.162-18.293-92.86-22.859-18.458-2.656-36.91-5.46-55.45-7.416-15.983-1.69-32.074-2.667-48.14-3.256-20.477-0.753-40.998-1.473-61.47-0.948-19.444 0.502-38.869 2.36-58.258 4.132-15.065 1.38-30.202 2.759-45.049 5.523-25.066 4.667-50.072 9.842-74.837 15.89-28.179 6.883-55.236 17.278-81.144 30.295-21.242 10.666-41.112 23.48-58.573 39.897-24.614 23.138-41.312 51.383-55.007 81.833-12.123 26.956-21.416 54.844-28.006 83.559-3.881 15.457-8.253 37.517-11.83 59.842l-0.702 5.313c-3.026 19.49-4.762 39.198-6.574 58.856-1.197 12.992-1.746 26.045-2.19 39.089-0.573 16.862-1.326 33.748-0.946 50.602 0.473 21.093 1.298 42.23 3.26 63.224 3.985 42.619 10.4 66.62 21.532 108.033 7.137 26.56 16.018 52.52 27.58 77.568 9.665 20.938 21.172 40.732 35.55 58.706 14.869 18.593 33.343 33.288 53.588 45.654 26.384 16.115 54.75 27.93 84.183 37.185 28.283 8.895 57.024 16.004 86.42 20.203 16.192 2.312 32.39 4.683 48.656 6.358 15.284 1.574 30.641 2.765 45.993 3.225 25.167 0.76 50.38 1.585 75.53 0.888 21.017-0.579 41.981-3.178 62.952-5.086 35.796-3.259 70.948-10.265 105.588-19.605 23.653-6.378 46.79-14.43 69.097-24.716 18.964-8.737 37.12-18.792 53.907-31.284 23.103-17.205 41.312-38.525 55.693-63.446 15.727-27.245 27.887-55.987 36.288-86.158 6.732-24.178 12.19-30.464 17.206-55.069 3.748-18.411 6.17-37.113 8.621-55.759 1.373-10.422 1.982-20.984 2.27-31.5 0.914-32.47 2.162-64.95 1.992-97.42-0.104-19.408-2.614-38.8-4.027-58.197-0.081-1.074-0.044-2.16-0.054-3.24-0.078-8.55-0.113-8.71-8.003-6.962-35.442 7.857-69.983 18.856-103.042 33.637-37.561 16.797-74.375 35.278-111.405 53.248-13.304 6.456-27.256 11.28-41.886 10.936-13.216-0.305-26.55-2.724-39.505-5.663-31.824-7.22-63.316-15.928-95.207-22.801-32.588-7.025-65.463-12.769-98.287-18.679-13.103-2.356-26.384-3.768-39.614-5.388-6.080-0.741-9.269-4.683-10.298-13.149-3.505-28.83 17.454-55.417 42.946-63.348 8.69-2.707 18.25-3.231 27.453-3.546 15.842-0.549 31.743-0.693 47.574-0.017 19.090 0.823 38.138 2.604 57.189 4.12 12.092 0.964 24.165 2.167 36.246 3.319 6.916 0.658 13.83 1.34 20.724 2.166 12.865 1.543 13.98-6.579 11.39-16.415-3.107-11.809-11.408-19.903-21.058-26.605-21.865-15.188-46.592-24.246-71.668-32.279-14.663-4.7-29.465-9.9-44.596-11.929-16.35-2.193-33.189-1.722-49.754-0.98-12.717 0.572-25.329 3.41-38 5.162-17.134 2.37-32.58 8.883-47.717 17.198-19.188 10.542-38.865 20.373-58.962 29.052-25.552 11.030-51.577 21.044-77.717 30.62-13.631 4.997-27.835 8.789-42.653 8.515-27.781-0.502-41.376-19.31-40.060-44.008 0.094-1.78 2.158-3.942 3.875-5.061 29.371-19.119 58.655-38.384 88.321-57.044 30.265-19.033 61.040-37.256 91.365-56.196 14.178-8.854 27.722-18.725 41.756-27.82 21.924-14.21 43.86-28.418 69.258-36.055 14.271-4.294 28.746-5.826 43.356-3.075 42.86 8.075 85.668 16.44 128.473 24.79 25.24 4.93 50.372 10.427 75.685 14.963 19.75 3.539 39.749 5.675 59.543 9.004 19.8 3.332 38.674-1.46 57.601-5.646 21.1-4.674 42.061-9.958 63.075-15.009 1.113-0.265 2.164-0.818 3.635-1.39zM440.078 604.13c-56.345 0-112.693 0.051-169.037-0.095-4.555-0.010-9.249-0.828-13.631-2.182-25.35-7.828-34.321-38.247-25.188-62.113 7.332-19.161 22.034-26.993 40.666-27.012 103.3-0.11 206.604-0.088 309.907 0 11.652 0.013 23.175 0.458 34.581 1.321l-1.541-0.094c10.13 0.742 18.174 6.335 24.515 14.486 8.394 10.789 10.631 23.345 9.073 37.092-1.315 11.59-6.012 21.152-14.162 28.659-8.070 7.429-17.866 9.965-28.396 9.96-55.596-0.035-111.19-0.022-166.787-0.022zM439.507 750.559c-55.806 0-111.612 0.033-167.418-0.066-4.246-0.007-8.618-0.425-12.714-1.556-27.341-7.532-36.36-38.463-27.089-62.958 7.223-19.090 21.895-26.775 40.257-26.8 106.54-0.161 213.077-0.103 319.617-0.031 7.64 0.005 15.304 0.441 22.919 1.16 13.201 1.245 22.863 8.747 29.3 20.711 5.1 9.476 6.458 19.836 5.050 30.776-1.564 12.132-6.279 22.025-15.453 29.65-8.040 6.683-17.261 9.034-27.051 9.055-55.805 0.12-111.613 0.059-167.418 0.059z" />
<glyph unicode="&#xe621;" glyph-name="weizhang" d="M663.635 183.509c-32.47 0-58.811 26.341-58.811 58.811s26.341 58.811 58.811 58.811c32.465 0 58.811-26.341 58.811-58.811s-26.346-58.811-58.811-58.811v0zM537.75 226.864v0c0-9.722-7.875-17.496-17.501-17.496h-165.057c-9.624 0-17.496 7.774-17.496 17.496v49.187c0 9.626 7.872 17.497 17.496 17.497h164.965c9.621 0 17.496-7.774 17.496-17.497v-49.187h0.097zM209.283 183.509c-32.47 0-58.811 26.341-58.811 58.811s26.341 58.811 58.811 58.811c32.465 0 58.807-26.341 58.807-58.811s-26.341-58.811-58.807-58.811v0zM191.104 511.007l25.856 68.822 0.389 1.651c2.528 13.902 8.359 16.43 16.814 27.122h405.073c8.553-11.081 13.897-13.897 16.23-27.024l26.25-70.668 9.624-38.397c-2.143-28.097-35.874-50.259-63.965-50.259h-381.937c-28.091 0-61.822 22.163-63.96 50.259l9.624 38.495zM831.513 488.648h-78.154c-3.693 0-7.097-1.071-10.205-2.723l-35.29 106.153c-11.276 60.366-53.755 89.528-105.957 89.528h-330.996c-59.976 0-96.334-39.079-105.958-89.43l-35.285-106.445c-3.21 1.847-6.902 3.112-10.789 3.112h-78.159c-12.050 0-21.773-9.722-21.773-21.777v-18.856c0-12.056 9.723-21.778 21.773-21.778l29.552-5.051c-9.333-18.276-14.677-39.177-14.677-63.478l-10.984-125.306c0-3.594 0.287-7.286 0.678-11.081-0.391-2.235-0.678-4.666-0.678-7.096v-150.674c0-21.481 17.4-38.787 38.88-38.787h59.299c21.481 0 38.787 17.403 38.787 38.787v48.413h509.667v-48.413c0-21.481 17.399-38.787 38.88-38.787h59.299c21.481 0 38.885 17.403 38.885 38.787v150.674c0 2.431-0.292 4.764-0.682 7.096 0.389 3.698 0.682 7.39 0.682 11.081l-10.984 125.111c0 24.399-5.348 45.299-14.778 63.576l28.967 4.954c12.055 0 21.778 9.722 21.778 21.778v18.856c0 12.055-9.82 21.777-21.778 21.777zM989.212 685.495c10.21 0 24.674 21.271 28.079 28.929 3.403 6.806 11.912 39.139-4.255 39.139h-45.095v33.183h21.271c10.21 0 24.674 21.271 28.079 28.929 3.403 6.806 11.912 39.139-4.255 39.139h-45.095v11.912h12.762v17.018h-201.652v-17.018h12.762v-12.762h-43.394c-16.165 0-7.656-31.482-4.253-39.139 3.403-7.658 17.868-28.929 28.079-28.929h19.569v-33.183h-43.394c-16.165 0-7.656-32.332-4.253-39.141 3.403-6.806 17.018-28.077 27.227-28.077h19.57v-33.183h-42.544c-16.165 0-7.656-32.332-4.253-39.141 3.403-7.656 17.868-28.928 28.079-28.928h19.569v-25.526h30.632v-11.912h114.014v11.912h30.632v25.526h21.271c10.209 0 24.674 21.271 28.077 28.928 3.403 6.808 11.912 39.141-4.254 39.141h-45.095v33.183h22.121zM880.302 578.289c-21.271 0-39.139 17.868-39.139 39.139 0 22.121 17.018 39.139 39.139 39.139 21.271 0 39.139-17.868 39.139-39.139s-17.868-39.139-39.139-39.139v0zM880.302 671.031c-21.271 0-39.139 17.868-39.139 39.139 0 22.123 17.018 39.139 39.139 39.139 21.271 0 39.139-17.868 39.139-39.139s-17.868-39.139-39.139-39.139v0zM880.302 763.773c-21.271 0-39.139 17.868-39.139 39.141 0 22.121 17.018 39.139 39.139 39.139 21.271 0 39.139-17.868 39.139-39.139 0-21.273-17.868-39.141-39.139-39.141v0z" />
<glyph unicode="&#xe622;" glyph-name="wenjian" d="M802.44 838.854c17.463-16.169 31.368-29.59 41.717-40.26 10.348-10.673 18.271-19.726 23.768-27.165s8.894-13.743 10.187-18.917c1.294-5.175 1.94-9.701 1.94-13.582v-15.523h-143.583c-6.467 0-12.127 2.426-16.978 7.277-4.849 4.85-8.893 10.509-12.127 16.978-3.234 6.467-5.659 13.096-7.276 19.888-1.618 6.792-2.424 12.126-2.424 16.008v120.297h2.909c5.174 0 10.51-0.808 16.008-2.425s11.804-4.69 18.917-9.217c7.116-4.527 16.010-10.994 26.68-19.403 10.672-8.407 24.093-19.727 40.262-33.955zM636.545 782.585c0-12.936 1.94-26.355 5.821-40.261s10.024-26.841 18.434-38.806c8.407-11.966 19.079-21.828 32.014-29.591 12.935-7.76 28.133-11.641 45.596-11.641h141.643v-547.165c0-18.756-3.72-35.572-11.157-50.447s-17.301-27.488-29.589-37.837c-12.29-10.349-25.871-18.433-40.747-24.254s-29.427-8.732-43.656-8.732h-477.315c-12.289 0-25.71 3.558-40.26 10.673-14.553 7.114-28.136 16.494-40.746 28.135-12.612 11.642-23.122 24.9-31.53 39.775s-12.613 30.4-12.613 46.569v659.702c0 13.581 3.073 27.649 9.217 42.201 6.145 14.552 14.552 27.972 25.223 40.262s22.798 22.475 36.381 30.56c13.583 8.083 27.812 12.127 42.687 12.127h370.598v-121.27zM697.665 177.212c16.815 0 31.044 5.982 42.685 17.947 11.643 11.966 17.463 26.357 17.463 43.172s-5.821 31.045-17.463 42.687c-11.641 11.641-25.87 17.463-42.685 17.463h-363.807c-16.817 0-31.046-5.822-42.687-17.463-11.642-11.642-17.463-25.871-17.463-42.687s5.821-31.207 17.463-43.172c11.64-11.964 25.87-17.947 42.687-17.947h363.807zM757.814 479.899c0 16.816-5.821 31.208-17.463 43.172-11.641 11.966-25.87 17.947-42.685 17.947h-363.808c-16.817 0-31.046-5.981-42.687-17.947-11.642-11.964-17.463-26.356-17.463-43.172s5.821-31.045 17.463-42.687c11.64-11.641 25.87-17.463 42.687-17.463h363.807c16.815 0 31.044 5.822 42.685 17.463 11.643 11.641 17.464 25.871 17.464 42.687z" />
<glyph unicode="&#xe623;" glyph-name="xinwen" d="M814.368 633.788c-12.961 0-23.573 10.613-23.573 23.573v45.747c0 12.961-10.613 23.573-23.573 23.573h-603.246c-12.961 0-23.573-10.613-23.573-23.573v-487.41c0-25.651 20.796-46.424 46.447-46.424h627.090c38.467 0.013 69.646 31.193 69.659 69.658v371.305c0 12.961-10.613 23.573-23.551 23.573h-45.679zM744.325 239.294c0-12.961-10.635-23.573-23.596-23.573h-510.261c-12.961 0-23.573 10.613-23.573 23.573v417.413c0 12.961 10.613 23.573 23.573 23.573h510.284c12.961 0 23.596-10.613 23.596-23.573v-417.413zM233.318 601.544c0 12.78 10.613 23.257 23.573 23.257h417.345c12.961 0 23.596-10.477 23.596-23.257-0.153-12.852-10.607-23.212-23.482-23.212-0.040 0-0.080 0-0.121 0h-417.339c-0.041 0-0.089 0-0.137 0-12.865 0-23.309 10.365-23.437 23.201v0.012zM512.045 508.627c0 12.758 10.635 23.235 23.596 23.235h138.663c12.961 0 23.596-10.477 23.596-23.235s-10.635-23.235-23.596-23.235h-138.663c-0.027 0-0.060 0-0.092 0-12.887 0-23.351 10.37-23.504 23.22v0.014zM512.045 415.733c0 12.758 10.635 23.235 23.596 23.235h138.663c12.961 0 23.596-10.477 23.596-23.235s-10.635-23.235-23.596-23.235h-138.663c-0.014 0-0.031 0-0.047 0-12.896 0-23.371 10.365-23.549 23.218v0.017zM512.045 322.817c0 12.758 10.635 23.235 23.596 23.235h92.194c12.938 0 23.573-10.477 23.573-23.235s-10.635-23.235-23.573-23.235h-92.194c-0.014 0-0.031 0-0.047 0-12.896 0-23.371 10.365-23.549 23.218v0.017zM233.318 508.311c0 12.961 10.613 23.573 23.573 23.573h185.088c12.961 0 23.573-10.613 23.573-23.573v-185.11c0-12.938-10.613-23.573-23.573-23.573h-185.088c-12.999 0.051-23.522 10.575-23.573 23.569v185.115z" />
<glyph unicode="&#xe624;" glyph-name="xinyong" d="M858.942 375.887c-88.138 0-158.648-70.51-158.648-158.648s70.51-158.648 158.648-158.648 158.648 70.51 158.648 158.648-70.51 158.648-158.648 158.648zM924.645 226.854v-20.833h-41.665v-17.628h41.665v-20.833h-41.665v-44.87h-38.46v44.87h-41.665v20.833h41.665v17.628h-41.665v20.833h32.050l-43.268 80.125h43.268l19.23-44.87c4.808-11.218 8.013-20.833 11.218-30.448 3.205 9.615 6.41 20.833 11.218 30.448l19.23 44.87h41.665l-44.87-80.125h32.050zM8.013 659.531h940.67v99.355c0 54.485-44.87 99.355-99.355 99.355h-741.959c-54.485 0-99.355-44.87-99.355-99.355v-99.355zM673.052 220.444c0 99.355 80.125 181.083 181.083 181.083 35.255 0 67.305-9.615 94.548-27.243v168.263h-940.67v-379.793c0-54.485 44.87-99.355 99.355-99.355h658.629c-56.088 28.845-92.945 88.138-92.945 157.045zM373.383 161.152h-240.376l41.665 118.585h240.376l-41.665-118.585z" />
<glyph unicode="&#xe625;" glyph-name="yuyue" d="M451.022 97.706h-339.9c-24.379 0-44.16 19.782-44.16 44.16v401.429h827.6v210.481c0 59.481-48.357 107.838-107.838 107.838h-83.193v63.676h-63.611v-63.676h-381.995v63.676h-63.611v-63.676h-83.194c-59.481 0-107.838-48.357-107.838-107.838v-611.908c0-59.481 48.357-107.838 107.838-107.838h339.9c17.584 0 31.838 14.254 31.838 31.839 0 17.649-14.254 31.837-31.838 31.837zM66.962 753.776c0 24.379 19.783 44.16 44.16 44.16h83.194v-95.449h63.611v95.449h381.996v-95.449h63.611v95.449h83.193c24.379 0 44.161-19.783 44.161-44.16v-146.803h-763.924v146.803zM162.478 447.846h222.803v-63.66h-222.803v63.66zM162.478 256.899h222.803v-63.677h-222.803v63.677zM799.046 352.347h-63.676v-159.125h159.192v63.677h-95.516v95.448zM947.249 405.1c-48.157 48.074-111.968 74.584-180.040 74.584-68.007 0-131.95-26.51-180.040-74.584-48.157-48.157-74.6-112.034-74.6-180.040 0-68.073 26.443-132.017 74.6-180.039 48.157-48.157 112.034-74.6 180.040-74.6 68.073 0 132.017 26.443 180.040 74.6 48.157 48.157 74.6 111.967 74.6 180.039 0 68.007-26.444 131.95-74.6 180.040zM767.209 34.030c-105.306 0-190.964 85.658-190.964 191.030 0 105.306 85.658 190.964 190.964 190.964 105.374 0 190.964-85.658 190.964-190.964 0-105.373-85.591-191.030-190.964-191.030z" />
<glyph unicode="&#xe626;" glyph-name="zhiyin" d="M447.624 482.773c-114.851 0.22-208.211-0.369-210.033-2.845l-133.773-110.136c-5.277-5.033-7.777-11.703-7.666-18.317-0.721-7.315 1.056-14.63 6.834-20.248 0 0 132.383-122.836 134.605-123.947h210.034v-239.511c0-17.294 14.455-31.769 32.286-31.769h53.582c17.798 0 32.286 14.224 32.286 31.769v239.511h240.344c0.278 1.814 78.774-4.507 71.052 0l-133.939 143.2c0 0 132.939 127.926 133.939 129.448 0 0-154.345 1.579-311.396 2.402v40.027h215.709c2.222 1.111 134.605 123.947 134.605 123.947 5.778 5.618 7.555 12.933 6.834 20.248 0.11 6.613-2.389 13.284-7.666 18.317l-133.773 110.136c-1.851 2.517-98.273 3.083-215.708 2.833v130.393c0 17.294-14.455 31.769-32.286 31.769h-53.582c-17.798 0-32.286-14.224-32.286-31.769v-130.854c-155.073-0.83-305.721-2.372-305.721-2.372 1-1.522 133.939-129.448 133.939-129.448l-133.939-143.2c-7.722-4.507 70.774 1.814 71.052 0h234.669v-39.584z" />
</font>
</defs>
</svg>
